<svg width="45" height="45" viewBox="0 0 45 45" fill="none" xmlns="http://www.w3.org/2000/svg">
<g id="ph:copy">
<path id="Vector" d="M37.9688 5.625H15.4688C15.0958 5.625 14.7381 5.77316 14.4744 6.03688C14.2107 6.3006 14.0625 6.65829 14.0625 7.03125V14.0625H7.03125C6.65829 14.0625 6.3006 14.2107 6.03688 14.4744C5.77316 14.7381 5.625 15.0958 5.625 15.4688V37.9688C5.625 38.3417 5.77316 38.6994 6.03688 38.9631C6.3006 39.2268 6.65829 39.375 7.03125 39.375H29.5312C29.9042 39.375 30.2619 39.2268 30.5256 38.9631C30.7893 38.6994 30.9375 38.3417 30.9375 37.9688V30.9375H37.9688C38.3417 30.9375 38.6994 30.7893 38.9631 30.5256C39.2268 30.2619 39.375 29.9042 39.375 29.5312V7.03125C39.375 6.65829 39.2268 6.3006 38.9631 6.03688C38.6994 5.77316 38.3417 5.625 37.9688 5.625ZM28.125 36.5625H8.4375V16.875H28.125V36.5625ZM36.5625 28.125H30.9375V15.4688C30.9375 15.0958 30.7893 14.7381 30.5256 14.4744C30.2619 14.2107 29.9042 14.0625 29.5312 14.0625H16.875V8.4375H36.5625V28.125Z" fill="#C0DDA6"/>
</g>
</svg>
