<svg width="44" height="40" viewBox="0 0 28 27" fill="none" xmlns="http://www.w3.org/2000/svg">
<path d="M18.3726 27.0008L9.62744 23.8507L2.84998 26.5508C2.36414 26.7508 1.91473 26.6948 1.50177 26.3828C1.08881 26.0708 0.882324 25.6517 0.882324 25.1257V4.12512C0.882324 3.80011 0.973662 3.5126 1.15634 3.2626C1.33901 3.01259 1.58776 2.82508 1.90259 2.70008L9.62744 0L18.3726 3.15009L25.15 0.450013C25.6359 0.250007 26.0853 0.306509 26.4982 0.619518C26.9112 0.932527 27.1177 1.35104 27.1177 1.87505V22.8757C27.1177 23.2007 27.0268 23.4882 26.8451 23.7382C26.6634 23.9882 26.4142 24.1757 26.0974 24.3007L18.3726 27.0008ZM16.915 23.3257V5.77517L11.085 3.67511V21.2256L16.915 23.3257ZM19.8301 23.3257L24.2026 21.8256V4.05012L19.8301 5.77517V23.3257ZM3.79736 22.9507L8.16992 21.2256V3.67511L3.79736 5.17515V22.9507Z" fill="#AFAFAF"/>
</svg>
