<svg width="18" height="19" viewBox="0 0 18 19" fill="none" xmlns="http://www.w3.org/2000/svg">
<path d="M15.9667 18.125L10.1917 12.0875C9.73333 12.4708 9.20625 12.7743 8.61042 12.9979C8.01458 13.2215 7.38056 13.3333 6.70833 13.3333C5.04306 13.3333 3.63383 12.7302 2.48067 11.524C1.3275 10.3178 0.750612 8.8445 0.75 7.10417C0.749389 5.36383 1.32628 3.89056 2.48067 2.68433C3.63506 1.47811 5.04428 0.875 6.70833 0.875C8.37239 0.875 9.78192 1.47811 10.9369 2.68433C12.0919 3.89056 12.6685 5.36383 12.6667 7.10417C12.6667 7.80694 12.5597 8.46979 12.3458 9.09271C12.1319 9.71562 11.8417 10.2667 11.475 10.7458L17.25 16.7833L15.9667 18.125ZM6.70833 11.4167C7.85417 11.4167 8.82828 10.9976 9.63067 10.1593C10.4331 9.32111 10.8339 8.30272 10.8333 7.10417C10.8327 5.90561 10.4318 4.88754 9.63067 4.04996C8.8295 3.21238 7.85539 2.79294 6.70833 2.79167C5.56128 2.79039 4.58747 3.20982 3.78692 4.04996C2.98636 4.8901 2.58517 5.90817 2.58333 7.10417C2.5815 8.30017 2.9827 9.31855 3.78692 10.1593C4.59114 11.0001 5.56495 11.4192 6.70833 11.4167Z" fill="#348833"/>
</svg>
